<svg width="148" height="44" viewBox="0 0 148 44" fill="none" xmlns="http://www.w3.org/2000/svg">
<path d="M11.1208 26.8424C8.84057 26.8424 7.17665 25.0895 7.17665 22.4603C7.11502 19.831 8.84057 18.0782 11.0591 18.0782C13.7707 18.0782 14.4486 20.5196 14.4486 20.5196H19.7485C19.7485 20.5196 18.7008 13.1953 10.9975 13.1953C5.75923 13.2579 2 17.0766 2 22.5229C2 27.9066 5.75923 31.7253 11.0591 31.7253C18.8241 31.7253 19.8718 24.4009 19.8718 24.4009H14.5719C14.5719 24.4009 13.8323 26.8424 11.1208 26.8424Z" fill="#18181B"/>
<path d="M30.5328 13.2578C25.7259 13.2578 23.1376 15.8871 22.8295 19.0171H27.8212C27.8212 19.0171 28.3142 17.4521 30.5328 17.4521C32.2583 17.4521 33.2444 18.5163 33.2444 20.0813V20.4569H29.3003C24.4934 20.4569 22.0899 22.8984 22.0899 26.2162C22.0899 29.3463 24.4934 31.7877 28.6224 31.7877C31.8886 31.7877 33.4293 29.8471 33.4293 29.8471H33.6141L33.9839 31.4121H38.421V20.0187C38.421 16.0749 35.6478 13.2578 30.5328 13.2578ZM29.6084 27.6561C28.0677 27.6561 27.205 26.7796 27.205 25.7154C27.205 24.6512 28.0677 23.7748 29.9165 23.7748H33.1827V24.1504H33.2444C33.2444 26.2788 31.8886 27.6561 29.6084 27.6561Z" fill="#18181B"/>
<path d="M62.9475 13.2578C57.6476 13.2578 53.8884 17.0765 53.8884 22.4602C53.8884 27.8439 57.6476 31.6625 62.9475 31.6625C69.48 31.6625 71.3288 25.9032 71.3288 25.9032H66.1521C66.1521 25.9032 65.1045 27.4683 62.8859 27.4683C60.6057 27.4683 59.1267 25.9032 58.9418 23.7748H71.6369C71.6369 23.7748 71.8218 23.274 71.8218 22.022C71.8834 17.0765 68.1242 13.2578 62.9475 13.2578ZM59.0034 20.7699C59.4964 18.4537 60.9139 17.3269 62.9475 17.3269C64.9812 17.3269 66.337 18.5789 66.8917 20.7699H59.0034Z" fill="#18181B"/>
<path d="M83.408 13.2578C78.108 13.2578 74.3488 17.0765 74.3488 22.4602C74.3488 27.8439 78.108 31.6625 83.408 31.6625C89.9404 31.6625 91.7892 25.9032 91.7892 25.9032H86.6125C86.6125 25.9032 85.5649 27.4683 83.3463 27.4683C81.0661 27.4683 79.5871 25.9032 79.4022 23.7748H92.0973C92.0973 23.7748 92.2822 23.274 92.2822 22.022C92.2822 17.0765 88.523 13.2578 83.408 13.2578ZM79.4638 20.7699C79.9568 18.4537 81.3743 17.3269 83.408 17.3269C85.4416 17.3269 86.7974 18.5789 87.3521 20.7699H79.4638Z" fill="#18181B"/>
<path d="M114.099 13.5703H108.553V31.349H114.099V13.5703Z" fill="#18181B"/>
<path d="M127.411 20.5821L124.823 20.2065C123.282 20.0187 122.789 19.5179 122.789 18.8293C122.789 17.9529 123.652 17.2643 125.377 17.2643C127.781 17.2643 128.089 18.8293 128.089 18.8293H133.081C133.081 18.8293 132.711 13.2578 125.377 13.2578C120.385 13.2578 117.797 15.8871 117.797 18.8293C117.797 21.8342 119.523 23.4618 123.652 24.0878L126.24 24.4634C127.781 24.6512 128.274 25.152 128.274 26.2162C128.274 27.0927 127.411 27.9691 125.562 27.9691C122.604 27.9691 122.604 25.9032 122.604 25.9032H117.612C117.612 25.9032 117.612 31.8503 125.562 31.8503C130.739 31.8503 133.265 29.2211 133.265 26.2788C133.265 22.961 131.417 21.0829 127.411 20.5821Z" fill="#18181B"/>
<path d="M41.6868 31.349H46.8635V21.5833V18.4532H52.4715V13.5703H41.6868V31.349Z" fill="#18181B"/>
<path d="M94.3162 31.349H99.4929V21.5833V18.4532H105.163V13.5703H94.3162V31.349Z" fill="#18181B"/>
<path d="M143.802 26.5299C142.94 26.5299 142.57 26.1543 142.57 25.2779V18.4544H146.452V13.5715V8H140.783V13.5715H134.62V18.4544H137.332V26.5299C137.332 29.66 139.057 31.4128 142.323 31.4128H146.452V26.5299H143.802Z" fill="#18181B"/>
</svg>
