<svg width="80" height="48" viewBox="0 0 80 48" fill="none" xmlns="http://www.w3.org/2000/svg">
<path d="M39.7775 3.81289C21.9389 3.81289 7.47779 12.8511 7.47779 24.0002C7.47779 35.1493 21.9389 44.1875 39.7775 44.1875C57.6161 44.1875 72.0771 35.1493 72.0771 24.0002C72.0771 12.8511 57.6161 3.8129 39.7775 3.81289Z" fill="#FFDFD6" stroke="#18181B" stroke-width="1.5" stroke-miterlimit="10"/>
<path d="M39.7775 15.1797C21.9389 15.1797 7.47779 19.1286 7.47779 23.9998C7.47779 28.8709 21.9389 32.8198 39.7775 32.8198C57.6161 32.8198 72.0771 28.8709 72.0771 23.9998C72.0771 19.1286 57.6161 15.1797 39.7775 15.1797Z" stroke="#18181B" stroke-width="1.5" stroke-miterlimit="10"/>
<path d="M39.7773 3.8129C32.3692 3.81289 26.3637 12.8511 26.3637 24.0002C26.3637 35.1493 32.3692 44.1875 39.7773 44.1875C47.1854 44.1875 53.1909 35.1493 53.1909 24.0002C53.1909 12.8511 47.1854 3.8129 39.7773 3.8129Z" stroke="#18181B" stroke-width="1.5" stroke-miterlimit="10"/>
</svg>
