<svg width="80" height="48" viewBox="0 0 80 48" fill="none" xmlns="http://www.w3.org/2000/svg">
<rect x="50.4404" y="3.41748" width="41.1606" height="20.919" transform="rotate(90 50.4404 3.41748)" fill="#DFC3FC"/>
<path d="M50.3232 44.7338L71.0015 24L50.3232 3.26624L29.6449 24L50.3232 44.7338Z" fill="#DFC3FC" stroke="#18181B" stroke-width="1.5" stroke-miterlimit="10" stroke-linejoin="round"/>
<path d="M29.6827 44.7261L50.3682 23.9995L29.6827 3.27296L8.99723 23.9995L29.6827 44.7261Z" fill="#DFC3FC" stroke="#18181B" stroke-width="1.5" stroke-miterlimit="10" stroke-linejoin="round"/>
<path d="M50.2969 44.728L29.6637 44.728" stroke="#18181B" stroke-width="1.5" stroke-miterlimit="10" stroke-linejoin="round"/>
<path d="M50.2969 3.26611L29.6637 3.26611" stroke="#18181B" stroke-width="1.5" stroke-miterlimit="10" stroke-linejoin="round"/>
<path d="M50.3232 44.7338L71.0015 24L50.3232 3.26624L29.6449 24L50.3232 44.7338Z" stroke="#18181B" stroke-width="1.5" stroke-miterlimit="10" stroke-linejoin="round"/>
<path d="M29.6827 44.7261L50.3682 23.9995L29.6827 3.27296L8.99723 23.9995L29.6827 44.7261Z" stroke="#18181B" stroke-width="1.5" stroke-miterlimit="10" stroke-linejoin="round"/>
<path d="M50.2969 44.728L29.6637 44.728" stroke="#18181B" stroke-width="1.5" stroke-miterlimit="10" stroke-linejoin="round"/>
<path d="M50.2969 3.26611L29.6637 3.26611" stroke="#18181B" stroke-width="1.5" stroke-miterlimit="10" stroke-linejoin="round"/>
</svg>
