<svg width="48" height="48" viewBox="0 0 48 48" fill="none" xmlns="http://www.w3.org/2000/svg">
<path d="M38.2313 29.4344L38.253 28.6847L37.4813 28.6623L37.4813 29.4344L38.2313 29.4344ZM38.2313 41.1155L38.2313 41.8655L38.9813 41.8655L38.9813 41.1155L38.2313 41.1155ZM4.00012 41.1155L3.25012 41.1155L3.25012 41.8655L4.00012 41.8655L4.00012 41.1155ZM4.00012 29.6085L4.00842 28.8585L3.25012 28.8501L3.25012 29.6085L4.00012 29.6085ZM4.04558 29.609L4.03728 30.3589L4.04288 30.359L4.04558 29.609ZM4.08639 29.6091L4.08369 30.3591L4.08639 30.3591L4.08639 29.6091ZM4.00012 18.4028L3.25012 18.4028L3.25012 19.1642L4.01143 19.1528L4.00012 18.4028ZM4.00012 6.88428L4.00012 6.13428L3.25012 6.13428L3.25012 6.88428L4.00012 6.88428ZM15.5561 6.88428L16.3055 6.91386L16.3363 6.13428L15.5561 6.13428L15.5561 6.88428ZM21.1551 12.7126L21.1551 11.9626L21.1551 12.7126ZM26.7542 6.88428L26.7542 6.13428L25.974 6.13428L26.0047 6.91384L26.7542 6.88428ZM38.2313 6.88428L38.9813 6.88428L38.9813 6.13428L38.2313 6.13428L38.2313 6.88428ZM38.2313 18.2322L37.4813 18.2322L37.4813 19.0042L38.253 18.9819L38.2313 18.2322ZM44.75 23.8333C44.75 20.3244 41.9055 17.4798 38.3965 17.4798L38.3965 18.9798C41.077 18.9798 43.25 21.1528 43.25 23.8333L44.75 23.8333ZM38.3965 30.1868C41.9055 30.1868 44.75 27.3422 44.75 23.8333L43.25 23.8333C43.25 26.5138 41.077 28.6868 38.3965 28.6868L38.3965 30.1868ZM38.2096 30.1841C38.2717 30.1859 38.334 30.1868 38.3965 30.1868L38.3965 28.6868C38.3485 28.6868 38.3007 28.6861 38.253 28.6847L38.2096 30.1841ZM38.9813 41.1155L38.9813 29.4344L37.4813 29.4344L37.4813 41.1155L38.9813 41.1155ZM4.00012 41.8655L38.2313 41.8655L38.2313 40.3655L4.00012 40.3655L4.00012 41.8655ZM3.25012 29.6085L3.25012 41.1155L4.75012 41.1155L4.75012 29.6085L3.25012 29.6085ZM4.05389 28.859L4.00842 28.8585L3.99181 30.3584L4.03728 30.3589L4.05389 28.859ZM4.0891 28.8591L4.04829 28.859L4.04288 30.359L4.08369 30.3591L4.0891 28.8591ZM8.93986 24.0057C8.93986 26.6861 6.76689 28.8591 4.08639 28.8591L4.08639 30.3591C7.59532 30.3591 10.4399 27.5146 10.4399 24.0057L8.93986 24.0057ZM4.08639 19.1522C6.76689 19.1522 8.93986 21.3252 8.93986 24.0057L10.4399 24.0057C10.4399 20.4967 7.59532 17.6522 4.08639 17.6522L4.08639 19.1522ZM4.01143 19.1528C4.03637 19.1524 4.06136 19.1522 4.08639 19.1522L4.08639 17.6522C4.05381 17.6522 4.02128 17.6524 3.98881 17.6529L4.01143 19.1528ZM3.25012 6.88428L3.25012 18.4028L4.75012 18.4028L4.75012 6.88428L3.25012 6.88428ZM15.5561 6.13428L4.00012 6.13428L4.00012 7.63428L15.5561 7.63428L15.5561 6.13428ZM16.3017 7.10917C16.3017 7.04371 16.303 6.9786 16.3055 6.91386L14.8067 6.85469C14.8033 6.93915 14.8017 7.02398 14.8017 7.10917L16.3017 7.10917ZM21.1551 11.9626C18.4746 11.9626 16.3017 9.78966 16.3017 7.10917L14.8017 7.10917C14.8017 10.6181 17.6462 13.4626 21.1551 13.4626L21.1551 11.9626ZM26.0086 7.10917C26.0086 9.78966 23.8356 11.9626 21.1551 11.9626L21.1551 13.4626C24.664 13.4626 27.5086 10.6181 27.5086 7.10917L26.0086 7.10917ZM26.0047 6.91384C26.0073 6.97861 26.0086 7.04372 26.0086 7.10917L27.5086 7.10917C27.5086 7.02397 27.5069 6.93914 27.5036 6.85471L26.0047 6.91384ZM38.2313 6.13428L26.7542 6.13428L26.7542 7.63428L38.2313 7.63428L38.2313 6.13428ZM38.9813 18.2322L38.9813 6.88428L37.4813 6.88428L37.4813 18.2322L38.9813 18.2322ZM38.3965 17.4798C38.334 17.4798 38.2717 17.4807 38.2096 17.4825L38.253 18.9819C38.3007 18.9805 38.3485 18.9798 38.3965 18.9798L38.3965 17.4798Z" fill="#18181B"/>
</svg>
