<svg width="48" height="48" viewBox="0 0 48 48" fill="none" xmlns="http://www.w3.org/2000/svg">
<path d="M38.3789 18.2545L37.6289 18.2545L37.6289 19.0036L38.378 19.0045L38.3789 18.2545ZM38.3789 29.5098L38.378 28.7598L37.6289 28.7606L37.6289 29.5098L38.3789 29.5098ZM38.3789 41.1895L38.3789 41.9395L39.1289 41.9395L39.1289 41.1895L38.3789 41.1895ZM3.99995 41.1895L3.24995 41.1895L3.24995 41.9395L3.99995 41.9395L3.99995 41.1895ZM3.99995 6.81055L3.99995 6.06055L3.24995 6.06055L3.24995 6.81055L3.99995 6.81055ZM15.4294 6.81055L16.1792 6.82398L16.1929 6.06055L15.4294 6.06055L15.4294 6.81055ZM21.0561 12.5409L21.0561 11.7909L21.0561 12.5409ZM26.6828 6.81055L26.6828 6.06055L25.9193 6.06055L25.9329 6.82394L26.6828 6.81055ZM38.3789 6.81055L39.1289 6.81055L39.1289 6.06055L38.3789 6.06055L38.3789 6.81055ZM44.75 23.8821C44.75 20.3623 41.8986 17.5085 38.3797 17.5045L38.378 19.0045C41.0693 19.0075 43.25 21.1902 43.25 23.8821L44.75 23.8821ZM38.3797 30.2598C41.8986 30.2558 44.75 27.402 44.75 23.8821L43.25 23.8821C43.25 26.5741 41.0693 28.7567 38.378 28.7598L38.3797 30.2598ZM37.6289 29.5098L37.6289 41.1895L39.1289 41.1895L39.1289 29.5098L37.6289 29.5098ZM38.3789 40.4395L3.99995 40.4395L3.99995 41.9395L38.3789 41.9395L38.3789 40.4395ZM4.74995 41.1895L4.74995 6.81055L3.24995 6.81055L3.24995 41.1895L4.74995 41.1895ZM3.99995 7.56055L15.4294 7.56055L15.4294 6.06055L3.99995 6.06055L3.99995 7.56055ZM14.6795 6.79711C14.6788 6.83576 14.6784 6.87449 14.6784 6.91328L16.1784 6.91328C16.1784 6.88344 16.1787 6.85367 16.1792 6.82398L14.6795 6.79711ZM14.6784 6.91328C14.6784 10.4356 17.5338 13.2909 21.0561 13.2909L21.0561 11.7909C18.3622 11.7909 16.1784 9.60713 16.1784 6.91328L14.6784 6.91328ZM21.0561 13.2909C24.5784 13.2909 27.4337 10.4356 27.4337 6.91328L25.9337 6.91328C25.9337 9.60713 23.7499 11.7909 21.0561 11.7909L21.0561 13.2909ZM27.4337 6.91328C27.4337 6.87446 27.4334 6.83575 27.4327 6.79715L25.9329 6.82394C25.9335 6.85368 25.9337 6.88346 25.9337 6.91328L27.4337 6.91328ZM26.6828 7.56055L38.3789 7.56055L38.3789 6.06055L26.6828 6.06055L26.6828 7.56055ZM37.6289 6.81055L37.6289 18.2545L39.1289 18.2545L39.1289 6.81055L37.6289 6.81055Z" fill="#18181B"/>
</svg>
