<svg width="48" height="48" viewBox="0 0 48 48" fill="none" xmlns="http://www.w3.org/2000/svg">
<path d="M38.8781 32.7857L38.8521 32.0362L38.1281 32.0613L38.1281 32.7857L38.8781 32.7857ZM38.8781 43.7462L38.8781 44.4962L39.6281 44.4962L39.6281 43.7462L38.8781 43.7462ZM4.33304 43.7462L3.58304 43.7462L3.58304 44.4962L4.33304 44.4962L4.33304 43.7462ZM4.33303 32.0107L4.32174 31.2608L3.58303 31.2719L3.58303 32.0107L4.33303 32.0107ZM4.33303 20.7023L3.58303 20.7023L3.58303 21.4411L4.32174 21.4522L4.33303 20.7023ZM4.33303 9.20111L4.33303 8.45111L3.58303 8.45111L3.58303 9.20111L4.33303 9.20111ZM15.8418 9.20111L15.8418 9.95111L16.504 9.95111L16.586 9.29402L15.8418 9.20111ZM27.0638 9.20111L26.3196 9.29402L26.4016 9.95111L27.0638 9.95111L27.0638 9.20111ZM38.8781 9.2011L39.6281 9.2011L39.6281 8.4511L38.8781 8.4511L38.8781 9.2011ZM38.8781 21.483L38.1281 21.483L38.1281 22.2074L38.8521 22.2325L38.8781 21.483ZM38.1281 32.7857L38.1281 43.7462L39.6281 43.7462L39.6281 32.7857L38.1281 32.7857ZM38.8781 42.9962L4.33304 42.9962L4.33304 44.4962L38.8781 44.4962L38.8781 42.9962ZM5.08304 43.7462L5.08303 32.0107L3.58303 32.0107L3.58304 43.7462L5.08304 43.7462ZM4.34433 32.7606C7.83651 32.708 10.651 29.861 10.651 26.3565L9.15103 26.3565C9.15103 29.0401 6.99564 31.2205 4.32174 31.2608L4.34433 32.7606ZM10.651 26.3565C10.651 22.852 7.83651 20.0049 4.34432 19.9524L4.32174 21.4522C6.99564 21.4925 9.15103 23.6728 9.15103 26.3565L10.651 26.3565ZM5.08303 20.7023L5.08303 9.20111L3.58303 9.20111L3.58303 20.7023L5.08303 20.7023ZM4.33303 9.95111L15.8418 9.95111L15.8418 8.45111L4.33303 8.45111L4.33303 9.95111ZM16.586 9.29402C16.8879 6.87561 18.9524 5.00391 21.4528 5.00391L21.4528 3.50391C18.1864 3.50391 15.492 5.94843 15.0976 9.1082L16.586 9.29402ZM21.4528 5.00391C23.9532 5.00391 26.0176 6.87561 26.3196 9.29402L27.808 9.1082C27.4135 5.94842 24.7192 3.50391 21.4528 3.50391L21.4528 5.00391ZM27.0638 9.95111L38.8781 9.9511L38.8781 8.4511L27.0638 8.45111L27.0638 9.95111ZM38.1281 9.2011L38.1281 21.483L39.6281 21.483L39.6281 9.2011L38.1281 9.2011ZM38.8521 22.2325C41.4801 22.3238 43.583 24.4837 43.583 27.1343L45.083 27.1343C45.083 23.6727 42.3371 20.8527 38.9041 20.7334L38.8521 22.2325ZM43.583 27.1343C43.583 29.785 41.4801 31.9448 38.8521 32.0362L38.9041 33.5353C42.3371 33.416 45.083 30.596 45.083 27.1343L43.583 27.1343Z" fill="#18181B"/>
</svg>
