<svg width="48" height="48" viewBox="0 0 48 48" fill="none" xmlns="http://www.w3.org/2000/svg">
<path d="M29.656 9.6874L28.9061 9.67814L28.8967 10.4374H29.656V9.6874ZM41.1566 9.6874H41.9066V8.9374H41.1566V9.6874ZM41.1566 44.0002V44.7502H41.9066V44.0002H41.1566ZM6.84375 44.0002H6.09375V44.7502H6.84375V44.0002ZM6.84375 32.5147L6.83247 31.7648L6.09375 31.7759V32.5147H6.84375ZM6.84375 21.2823H6.09375V22.0211L6.83247 22.0322L6.84375 21.2823ZM6.84375 9.6874V8.9374H6.09375V9.6874H6.84375ZM18.4233 9.6874V10.4374H19.1825L19.1732 9.67817L18.4233 9.6874ZM24.0396 3.25C20.5233 3.25 17.6728 6.10052 17.6728 9.61682H19.1728C19.1728 6.92895 21.3518 4.75 24.0396 4.75V3.25ZM30.4065 9.61682C30.4065 6.10052 27.5559 3.25 24.0396 3.25V4.75C26.7275 4.75 28.9065 6.92895 28.9065 9.61682H30.4065ZM30.406 9.69665C30.4063 9.67007 30.4065 9.64346 30.4065 9.61682H28.9065C28.9065 9.6373 28.9063 9.65774 28.9061 9.67814L30.406 9.69665ZM29.656 10.4374H41.1566V8.9374H29.656V10.4374ZM40.4066 9.6874V44.0002H41.9066V9.6874H40.4066ZM41.1566 43.2502H6.84375V44.7502H41.1566V43.2502ZM7.59375 44.0002V32.5147H6.09375V44.0002H7.59375ZM6.85503 33.2646C10.3265 33.2124 13.1244 30.3822 13.1244 26.8985H11.6244C11.6244 29.5614 9.48566 31.7248 6.83247 31.7648L6.85503 33.2646ZM13.1244 26.8985C13.1244 23.4148 10.3265 20.5846 6.85503 20.5324L6.83247 22.0322C9.48566 22.0722 11.6244 24.2356 11.6244 26.8985H13.1244ZM7.59375 21.2823V9.6874H6.09375V21.2823H7.59375ZM6.84375 10.4374H18.4233V8.9374H6.84375V10.4374ZM17.6728 9.61682C17.6728 9.64346 17.673 9.67006 17.6733 9.69662L19.1732 9.67817C19.1729 9.65775 19.1728 9.6373 19.1728 9.61682H17.6728Z" fill="#18181B"/>
</svg>
