<svg width="108" height="108" viewBox="0 0 108 108" fill="none" xmlns="http://www.w3.org/2000/svg">
<rect x="4" y="21" width="66.789" height="66.789" rx="33.3945" fill="#FF824C"/>
<mask id="path-2-inside-1" fill="white">
<path fill-rule="evenodd" clip-rule="evenodd" d="M82.7155 26.0078H58.5718V50.1265H35.1615V74.2434H11.023V98.3614H35.1615V98.3626H59.3053V98.3621H82.7155V26.0078Z"/>
</mask>
<path fill-rule="evenodd" clip-rule="evenodd" d="M82.7155 26.0078H58.5718V50.1265H35.1615V74.2434H11.023V98.3614H35.1615V98.3626H59.3053V98.3621H82.7155V26.0078Z" fill="white"/>
<path d="M58.5718 26.0078V24.5078H57.0718V26.0078H58.5718ZM82.7155 26.0078H84.2155V24.5078H82.7155V26.0078ZM58.5718 50.1265V51.6265H60.0718V50.1265H58.5718ZM35.1615 50.1265V48.6265H33.6615V50.1265H35.1615ZM35.1615 74.2434V75.7434H36.6615V74.2434H35.1615ZM11.023 74.2434V72.7434H9.52304V74.2434H11.023ZM11.023 98.3614H9.52304V99.8614H11.023V98.3614ZM35.1615 98.3614H36.6615V96.8614H35.1615V98.3614ZM35.1615 98.3626H33.6615V99.8626H35.1615V98.3626ZM59.3053 98.3626V99.8626H60.8053V98.3626H59.3053ZM59.3053 98.3621V96.8621H57.8053V98.3621H59.3053ZM82.7155 98.3621V99.8621H84.2155V98.3621H82.7155ZM58.5718 27.5078H82.7155V24.5078H58.5718V27.5078ZM60.0718 50.1265V26.0078H57.0718V50.1265H60.0718ZM58.5718 48.6265H35.1615V51.6265H58.5718V48.6265ZM33.6615 50.1265V74.2434H36.6615V50.1265H33.6615ZM35.1615 72.7434H11.023V75.7434H35.1615V72.7434ZM9.52304 74.2434V98.3614H12.523V74.2434H9.52304ZM11.023 99.8614H35.1615V96.8614H11.023V99.8614ZM33.6615 98.3614V98.3626H36.6615V98.3614H33.6615ZM35.1615 99.8626H59.3053V96.8626H35.1615V99.8626ZM60.8053 98.3626V98.3621H57.8053V98.3626H60.8053ZM82.7155 96.8621H59.3053V99.8621H82.7155V96.8621ZM81.2155 26.0078V98.3621H84.2155V26.0078H81.2155Z" fill="#18181B" mask="url(#path-2-inside-1)"/>
<mask id="path-4-inside-2" fill="white">
<path fill-rule="evenodd" clip-rule="evenodd" d="M95.9998 26.0625H71.8561V50.1812H48.4458V74.298H24.3073V98.4161H48.4458V98.4173H72.5896V98.4168H95.9998V26.0625Z"/>
</mask>
<path fill-rule="evenodd" clip-rule="evenodd" d="M95.9998 26.0625H71.8561V50.1812H48.4458V74.298H24.3073V98.4161H48.4458V98.4173H72.5896V98.4168H95.9998V26.0625Z" fill="#18181B"/>
<path d="M71.8561 26.0625V24.5625H70.3561V26.0625H71.8561ZM95.9998 26.0625H97.4998V24.5625H95.9998V26.0625ZM71.8561 50.1812V51.6812H73.3561V50.1812H71.8561ZM48.4458 50.1812V48.6812H46.9458V50.1812H48.4458ZM48.4458 74.298V75.798H49.9458V74.298H48.4458ZM24.3073 74.298V72.798H22.8073V74.298H24.3073ZM24.3073 98.4161H22.8073V99.9161H24.3073V98.4161ZM48.4458 98.4161H49.9458V96.9161H48.4458V98.4161ZM48.4458 98.4173H46.9458V99.9173H48.4458V98.4173ZM72.5896 98.4173V99.9173H74.0896V98.4173H72.5896ZM72.5896 98.4168V96.9168H71.0896V98.4168H72.5896ZM95.9998 98.4168V99.9168H97.4998V98.4168H95.9998ZM71.8561 27.5625H95.9998V24.5625H71.8561V27.5625ZM73.3561 50.1812V26.0625H70.3561V50.1812H73.3561ZM71.8561 48.6812H48.4458V51.6812H71.8561V48.6812ZM46.9458 50.1812V74.298H49.9458V50.1812H46.9458ZM48.4458 72.798H24.3073V75.798H48.4458V72.798ZM22.8073 74.298V98.4161H25.8073V74.298H22.8073ZM24.3073 99.9161H48.4458V96.9161H24.3073V99.9161ZM46.9458 98.4161V98.4173H49.9458V98.4161H46.9458ZM48.4458 99.9173H72.5896V96.9173H48.4458V99.9173ZM74.0896 98.4173V98.4168H71.0896V98.4173H74.0896ZM95.9998 96.9168H72.5896V99.9168H95.9998V96.9168ZM94.4998 26.0625V98.4168H97.4998V26.0625H94.4998Z" fill="#18181B" mask="url(#path-4-inside-2)"/>
</svg>
